<?xml version="1.0" standalone="no"?>
<!DOCTYPE svg PUBLIC "-//W3C//DTD SVG 20010904//EN"
 "http://www.w3.org/TR/2001/REC-SVG-20010904/DTD/svg10.dtd">
<svg version="1.0" xmlns="http://www.w3.org/2000/svg"
 width="104.000000pt" height="88.000000pt" viewBox="0 0 104.000000 88.000000"
 preserveAspectRatio="xMidYMid meet">

<g transform="translate(0.000000,88.000000) scale(0.100000,-0.100000)"
fill="#000000" stroke="none">
<path d="M338 737 c-21 -12 -38 -29 -38 -37 0 -8 20 -46 44 -85 l43 -70 120
-3 121 -3 46 76 c25 42 46 79 46 84 0 13 -80 63 -93 58 -7 -3 -34 -41 -60 -86
-27 -45 -54 -80 -60 -78 -7 2 -33 39 -59 83 -26 43 -53 80 -60 81 -7 1 -30 -8
-50 -20z"/>
<path d="M187 513 c-4 -3 -7 -30 -7 -59 l0 -53 147 -3 146 -3 73 -118 c40 -65
75 -121 77 -124 8 -7 97 47 97 59 0 6 -20 44 -45 85 -25 40 -45 80 -45 88 0
12 19 15 100 15 l100 0 0 60 0 60 -318 0 c-175 0 -322 -3 -325 -7z"/>
<path d="M343 297 c-24 -41 -43 -79 -43 -85 0 -11 88 -68 94 -61 2 2 25 40 52
83 45 75 47 80 33 105 -11 20 -24 27 -54 29 -40 2 -40 2 -82 -71z"/>
</g>
</svg>
